<svg xmlns:xlink="http://www.w3.org/1999/xlink" xmlns="http://www.w3.org/2000/svg" width="18" height="18" viewBox="0 0 18 18" fill="none"><path clip-rule="evenodd" d="M5.25 2.25 6 3.375V14.25l-.75 1.5h8.369l1.006-3H9.036V2.25H5.25ZM2.625 9.375A6.366 6.366 0 0 1 5.25 4.219V6.01a5.02 5.02 0 0 0-1.288 3.365A5.02 5.02 0 0 0 5.25 12.74v1.333l-.166.333a6.364 6.364 0 0 1-2.459-5.031Zm11.413 0c0 .962-.27 1.86-.737 2.625h1.51a6.376 6.376 0 0 0-5.025-8.952v1.35a5.04 5.04 0 0 1 4.252 4.977Z" fill="#D5A038" stroke-width="0px"></path></svg>